<mxfile host="app.diagrams.net" modified="2024-01-30T22:34:09.119Z" agent="Mozilla/5.0 (Macintosh; Intel Mac OS X 10.15; rv:122.0) Gecko/20100101 Firefox/122.0" version="23.0.2" etag="UGz0vB64tCwBtw9--g0Y" type="github">
  <diagram name="Page-1" id="OqEaKYe30vS4KreJpSmp">
    <mxGraphModel>
      <root>
        <mxCell id="0" />
        <mxCell id="1" parent="0" />
      </root>
    </mxGraphModel>
  </diagram>
</mxfile>
